<svg xmlns="http://www.w3.org/2000/svg" width="91.602" height="91.603" viewBox="0 0 91.602 91.603"><rect width="91.602" height="91.603" transform="translate(0 0)" fill="#21384b"/><g transform="translate(10.967 38.097)"><path d="M75.292,206.7l-2.708,16.312q-.1.59-.59.59H70.2c-.306,0-.5-.2-.568-.59l-1.856-9.3c-.087-.437-.175-.655-.284-.655s-.2.218-.284.655l-1.834,9.3c-.066.393-.262.59-.546.59H63.042c-.284,0-.48-.2-.546-.59L59.351,206.7a.52.52,0,0,1,.546-.568h1.681c.327,0,.524.2.59.568l1.725,9.258c.044.153.131.24.24.24s.175-.087.2-.24l1.791-9.237c.065-.393.262-.59.568-.59h1.528q.459,0,.59.59l1.878,9.084c.022.153.109.24.218.24.131,0,.218-.087.24-.24l1.288-9.106a.555.555,0,0,1,.59-.568h1.7C75.051,206.133,75.357,206.417,75.292,206.7Z" transform="translate(-59.342 -206.133)" fill="#e6d8c9"/><path d="M164.915,221.353v1.616a.648.648,0,0,1-.633.633H156.9a.664.664,0,0,1-.633-.633V206.744c0-.415.218-.611.633-.611h7.162c.415,0,.633.2.633.611v1.529a.648.648,0,0,1-.633.633h-4.127c-.415,0-.633.2-.633.611v2.97c0,.393.218.59.633.59h3.123c.415,0,.633.2.633.611v1.485a.634.634,0,0,1-.633.633h-3.123c-.415,0-.633.2-.633.611v3.69c0,.415.218.612.633.612h4.345A.664.664,0,0,1,164.915,221.353Z" transform="translate(-138.354 -206.133)" fill="#e6d8c9"/><path d="M75.443,345.095v16.311a.521.521,0,0,1-.59.59H73.172c-.415,0-.611-.2-.611-.59v-9.87c0-.131-.044-.2-.153-.2a.213.213,0,0,0-.218.2l-2.358,9.87q-.131.59-.59.59h-1c-.284,0-.48-.2-.568-.59l-2.293-9.891c-.044-.153-.109-.24-.218-.24-.153,0-.218.087-.218.24v9.891c0,.393-.2.59-.611.59H62.538c-.371,0-.546-.2-.546-.59V345.095c0-.371.175-.568.546-.568H65.9q.491,0,.655.655l1.944,8.232c.087.393.175.59.284.59q.131,0,.262-.59l1.791-8.319c.065-.371.262-.568.568-.568h3.45A.515.515,0,0,1,75.443,345.095Z" transform="translate(-61.502 -318.949)" fill="#e6d8c9"/><path d="M152.788,345.139l3.45,16.224a.515.515,0,0,1-.524.633h-1.965c-.284,0-.481-.218-.568-.633l-.546-2.577c-.066-.371-.262-.568-.568-.568H149.4a.592.592,0,0,0-.633.568l-.459,2.577c-.087.415-.306.633-.633.633h-1.943a.522.522,0,0,1-.5-.633l3.21-16.224c.087-.415.284-.612.611-.612h3.123C152.5,344.527,152.7,344.724,152.788,345.139Zm-.961,9.564-1.026-5.721c-.066-.306-.131-.459-.24-.459s-.175.153-.218.459L149.4,354.7c-.065.415.087.633.48.633H151.3A.527.527,0,0,0,151.828,354.7Z" transform="translate(-129.35 -318.949)" fill="#e6d8c9"/><path d="M225.282,349.4v7.73a4.784,4.784,0,0,1-1.419,3.45,4.714,4.714,0,0,1-3.45,1.419h-4.345a.63.63,0,0,1-.611-.633V345.139a.535.535,0,0,1,.611-.612h4.345a4.65,4.65,0,0,1,3.45,1.441A4.7,4.7,0,0,1,225.282,349.4Zm-3.035,7.49V349.7a2.283,2.283,0,0,0-.742-1.725,2.342,2.342,0,0,0-1.725-.72h-.655c-.415,0-.633.2-.633.611v10.809a.648.648,0,0,0,.633.633h.655a2.409,2.409,0,0,0,1.725-.7A2.282,2.282,0,0,0,222.247,356.886Z" transform="translate(-186.603 -318.949)" fill="#e6d8c9"/><path d="M290.5,359.747v1.616a.648.648,0,0,1-.633.633h-7.38a.664.664,0,0,1-.633-.633V345.139c0-.415.218-.612.633-.612h7.162c.415,0,.633.2.633.612v1.528a.648.648,0,0,1-.633.633H285.52c-.415,0-.633.2-.633.611v2.97c0,.393.218.59.633.59h3.122c.415,0,.633.2.633.611v1.485a.634.634,0,0,1-.633.633H285.52c-.415,0-.633.2-.633.611v3.69c0,.415.218.611.633.611h4.345A.664.664,0,0,1,290.5,359.747Z" transform="translate(-240.727 -318.949)" fill="#e6d8c9"/><path d="M343.57,379.027v2.031a.648.648,0,0,1-.633.633h-1.856a.634.634,0,0,1-.633-.633v-2.031c0-.393.218-.59.633-.59h1.856C343.352,378.437,343.57,378.633,343.57,379.027Zm0,7.883v2.053a.664.664,0,0,1-.633.633h-1.856a.648.648,0,0,1-.633-.633v-2.053c0-.393.218-.59.633-.59h1.856C343.352,386.32,343.57,386.516,343.57,386.909Z" transform="translate(-288.494 -346.592)" fill="#e6d8c9"/></g></svg>